ply
format ascii 1.0
element vertex 119
property float x
property float y
property float z
element face 198
property list uchar int vertex_indices
property int material_index
property uchar red
property uchar green
property uchar blue
element material 5
property list uchar uchar id
end_header
8 6 20
8 7 20
11 7 20
0 0 10
2 2 10
4 2 10
6 6.5 7
7 7.5 7
12 0 10
12 10 10
0 10 10
6.5 6 6
6.5 6.5 6
6.5 7.5 6
6.5 8 6
3 3 5
5 4 5
3 5 5
1 1 10
11 1 10.7692307692307701
1 9 8.84905660377358316
0 9.5 10
12 9.5 10
2 7 6.93207547169811278
4 7 6.93207547169811278
4 8 6.93207547169811278
2 8 6.93207547169811278
3.5 7 6.93207547169811278
2.25 8 6.93207547169811278
0 5.65685424949237969 10
5.65685424949237969 0 10
6 9.5 9
1 5 10
6 1 10
1.625 8.5 8.2264150943396217
3 2 10
7.25 4 11.0576923076923066
6.5 7 7
12 4.75 10
0 2.82842712474618985 10
0 7.57842712474618985 10
2.82842712474618985 0 10
8.82842712474618985 0 10
6 10 10
3 9.5 9
9 9.5 9
1 2.41421356237309492 10
1 7.39921894064178787 9.00055789954157959
3.82842712474618985 1 10
1.85956559527848486 8.31234752377721264 7.99273465225086888
5.06173761888606055 5.7506099048911512 6.18765247622278824
6.25 6.75 7
6.75 7.25 7
12 2.375 10
12 7.125 10
0 1.41421356237309492 10
0 4.24264068711928477 10
1.41421356237309492 0 10
8.5988284109626818 1 9.66731754946517796
10.4142135623730958 0 10
3 10 10
1.5 9.5 9.04716981132075304
9 10 10
1 8.19960947032089393 8.42885037834221862
1 6.19960947032089393 9.85742180691364567
4.24264068711928477 0 10
2.41421356237309492 1 10
2.05478279763924254 8.15617376188860632 7.79825411857826545
4.28086880944302983 6.3753049524455756 5.58056843134732006
6.15586880944302983 4.8753049524455756 10.0986266972387035
12 1.1875 10
1 3.70710678118654746 10
9.125 2.5 10.9134615384615401
9.7994142054813409 1 9.00032544139925506
1.5 10 10
0.75 9.5 9.33018867924528195
3.89043440472151492 6.68765247622278736 5.96952949869252691
10.0625 1.75 10.8413461538461533
0.75 10 10
5.25 7.5 6.08490566037735903
3.05039052967910607 8 6.93207547169811278
2.875 7.5 6.93207547169811278
2.69960947032089393 7 6.93207547169811278
2.25 9.5 9
2.25 10 10
2.65019526483955303 8.70034171346921603 7.99453028217824091
4.5 10 10
4.5 9.5 9
7.5 9.5 9
7.5 10 10
10.5 10 10
10.5 9.5 9
2 7.5 6.93207547169811278
3.09980473516044697 6.09956065411100745 5.8129413606668372
2.09045840572113706 8.84139327199097558 8.31486709504164523
7.33333333333333304 6.91666666666666696 13.1666666666666607
5.69642857142857117 7.05357142857142883 6.04523809523809508
2.39516887057905326 8.38155872064359286 7.84416094593973945
1.45687515251343047 8.0494142054813409 7.9412920636691755
8.25 10 10
8.25 9.5 9
9.5 7 20
8.625 8.19999999999999929 12.3294117647058847
3.75 9.5 9
3.75 10 10
5.25 9.5 9
5.25 10 10
6.75 9.5 9
6.75 10 10
11.25 9.5 11.352941176470587
11.25 10 10
12 8.3125 10
9.75 9.5 9
9.75 10 10
10.125 8.19999999999999929 16
7.24264068711928477 0 10
7.2994142054813409 1 10
7.45000000000000018 8.44999999999999929 6.89999999999999858
10.6038074712643677 3.38757183908045967 15.2540491118077313
3 11 6 50 0 0 0 127
3 1 0 101 0 0 0 127
3 37 12 95 0 0 0 127
3 52 37 95 0 0 0 127
3 102 100 117 0 0 0 127
3 47 40 64 0 0 0 127
3 5 35 48 1 0 128 255
3 85 83 94 0 0 0 127
3 23 47 64 1 0 128 255
3 25 24 79 0 0 0 127
3 43 107 108 2 124 255 121
3 12 11 95 0 0 0 127
3 38 2 101 0 0 0 127
3 24 68 79 0 0 0 127
3 14 13 7 0 0 0 127
3 56 39 71 0 0 0 127
3 3 18 55 0 0 0 127
3 6 12 51 0 0 0 127
3 6 11 12 0 0 0 127
3 37 13 96 0 0 0 127
3 13 37 52 0 0 0 127
3 44 85 103 0 0 0 127
3 17 15 16 3 255 148 0
3 33 5 48 1 0 128 255
3 2 38 54 0 0 0 127
3 15 5 16 1 0 128 255
3 11 50 69 0 0 0 127
3 4 15 71 1 0 128 255
3 18 4 46 1 0 128 255
3 59 19 73 0 0 0 127
3 63 47 98 1 0 128 255
3 32 17 64 1 0 128 255
3 42 58 115 0 0 0 127
3 8 19 59 0 0 0 127
3 48 41 65 0 0 0 127
3 46 4 71 1 0 128 255
3 100 88 117 0 0 0 127
3 31 14 107 0 0 0 127
3 21 20 75 0 0 0 127
3 13 14 79 0 0 0 127
3 45 102 112 0 0 0 127
3 33 48 65 0 0 0 127
3 27 24 25 4 127 0 0
3 80 28 81 4 127 0 0
3 82 81 92 4 127 0 0
3 47 23 92 1 0 128 255
3 27 80 81 4 127 0 0
3 38 101 118 0 0 0 127
3 16 33 36 1 0 128 255
3 0 11 69 0 0 0 127
3 82 23 93 1 0 128 255
3 74 83 84 2 124 255 121
3 23 64 93 1 0 128 255
3 16 5 33 1 0 128 255
3 30 33 65 0 0 0 127
3 27 25 80 4 127 0 0
3 25 87 103 0 0 0 127
3 5 15 35 1 0 128 255
3 15 4 35 1 0 128 255
3 36 0 69 0 0 0 127
3 17 16 50 1 0 128 255
3 7 13 52 0 0 0 127
3 12 37 51 0 0 0 127
3 58 73 77 1 0 128 255
3 18 46 55 0 0 0 127
3 20 21 63 0 0 0 127
3 40 47 63 0 0 0 127
3 18 57 66 0 0 0 127
3 58 42 73 0 0 0 127
3 22 109 111 0 0 0 127
3 25 79 105 0 0 0 127
3 74 61 83 2 124 255 121
3 20 34 61 0 0 0 127
3 0 36 118 0 0 0 127
3 91 112 114 0 0 0 127
3 39 46 71 0 0 0 127
3 46 39 55 0 0 0 127
3 26 49 98 1 0 128 255
3 21 40 63 0 0 0 127
3 48 35 66 1 0 128 255
3 57 41 66 0 0 0 127
3 49 34 98 1 0 128 255
3 34 49 94 0 0 0 127
3 79 68 96 0 0 0 127
3 17 50 68 1 0 128 255
3 13 79 96 0 0 0 127
3 51 37 96 0 0 0 127
3 1 7 95 0 0 0 127
3 7 52 95 0 0 0 127
3 42 59 73 0 0 0 127
3 32 56 71 0 0 0 127
3 32 29 56 0 0 0 127
3 41 48 66 0 0 0 127
3 18 3 57 0 0 0 127
3 36 33 116 1 0 128 255
3 58 72 116 1 0 128 255
3 44 60 84 2 124 255 121
3 61 74 78 2 124 255 121
3 20 61 75 0 0 0 127
3 34 63 98 1 0 128 255
3 34 20 63 1 0 128 255
3 40 29 64 0 0 0 127
3 29 32 64 0 0 0 127
3 35 4 66 1 0 128 255
3 4 18 66 1 0 128 255
3 49 26 67 1 0 128 255
3 26 28 67 1 0 128 255
3 68 50 96 0 0 0 127
3 64 17 93 1 0 128 255
3 50 16 69 1 0 128 255
3 16 36 69 1 0 128 255
3 53 19 70 0 0 0 127
3 19 8 70 0 0 0 127
3 15 17 71 1 0 128 255
3 17 32 71 1 0 128 255
3 101 0 118 0 0 0 127
3 36 72 118 0 0 0 127
3 72 58 77 1 0 128 255
3 73 19 77 1 0 128 255
3 83 44 84 2 124 255 121
3 75 61 78 2 124 255 121
3 10 75 78 2 124 255 121
3 10 21 75 2 124 255 121
3 68 24 76 0 0 0 127
3 24 27 76 0 0 0 127
3 19 53 77 0 0 0 127
3 72 77 118 0 0 0 127
3 14 31 105 0 0 0 127
3 87 25 105 0 0 0 127
3 28 80 97 0 0 0 127
3 80 85 97 0 0 0 127
3 23 82 92 4 127 0 0
3 27 81 82 4 127 0 0
3 76 27 93 1 0 128 255
3 27 82 93 1 0 128 255
3 44 83 85 0 0 0 127
3 80 25 103 0 0 0 127
3 94 49 97 0 0 0 127
3 85 94 97 0 0 0 127
3 79 14 105 0 0 0 127
3 86 105 106 2 124 255 121
3 60 103 104 2 124 255 121
3 85 80 103 0 0 0 127
3 88 107 117 0 0 0 127
3 45 99 100 2 124 255 121
3 2 111 114 0 0 0 127
3 90 109 110 2 124 255 121
3 62 112 113 2 124 255 121
3 102 101 114 0 0 0 127
3 81 28 92 4 127 0 0
3 28 26 92 4 127 0 0
3 17 68 93 1 0 128 255
3 68 76 93 1 0 128 255
3 83 61 94 0 0 0 127
3 61 34 94 0 0 0 127
3 11 0 95 0 0 0 127
3 0 1 95 0 0 0 127
3 50 6 96 0 0 0 127
3 6 51 96 0 0 0 127
3 49 67 97 0 0 0 127
3 67 28 97 0 0 0 127
3 47 92 98 1 0 128 255
3 92 26 98 1 0 128 255
3 45 100 102 0 0 0 127
3 45 62 99 2 124 255 121
3 99 89 100 2 124 255 121
3 89 88 100 2 124 255 121
3 112 102 114 0 0 0 127
3 1 101 102 0 0 0 127
3 7 1 117 0 0 0 127
3 1 102 117 0 0 0 127
3 60 44 103 2 124 255 121
3 103 87 104 2 124 255 121
3 87 86 104 2 124 255 121
3 86 87 105 2 124 255 121
3 105 31 106 2 124 255 121
3 31 43 106 2 124 255 121
3 43 31 107 2 124 255 121
3 107 88 108 2 124 255 121
3 88 89 108 2 124 255 121
3 90 91 109 2 124 255 121
3 109 22 110 2 124 255 121
3 22 9 110 2 124 255 121
3 101 2 114 0 0 0 127
3 2 54 111 0 0 0 127
3 62 45 112 2 124 255 121
3 112 91 113 2 124 255 121
3 91 90 113 2 124 255 121
3 111 109 114 0 0 0 127
3 109 91 114 0 0 0 127
3 72 36 116 1 0 128 255
3 33 30 115 0 0 0 127
3 33 115 116 0 0 0 127
3 115 58 116 0 0 0 127
3 107 14 117 0 0 0 127
3 14 7 117 0 0 0 127
3 77 53 118 0 0 0 127
3 53 38 118 0 0 0 127
11 95 95 100 101 102 97 117 108 116 95 95
5 103 114 97 115 115
4 112 105 110 101
5 87 97 116 101 114
10 95 95 104 105 100 100 101 110 95 95
