  0
SECTION
  2
HEADER
  9
$ACADVER
  1
AC1009
  9
$INSBASE
 10
0.0
 20
0.0
 30
0.0
  9
$EXTMIN
 10
0.0
 20
0.0
 30
0.0
  9
$EXTMAX
 10
0.0
 20
0.0
 30
0.0
  0
ENDSEC
  0
SECTION
  2
TABLES
  0
TABLE
  2
VPORT
 70
0
  0
ENDTAB
  0
TABLE
  2
LTYPE
 70
1
  0
LTYPE
  2
CONTINUOUS
 70
0
  3
Solid line
 72
65
 73
0
 40
0.0
  0
ENDTAB
  0
TABLE
  2
LAYER
 70
1
  0
LAYER
  2
PYDXF
 70
64
 62
7
  6
continuous
  0
ENDTAB
  0
TABLE
  2
STYLE
 70
1
  0
STYLE
  2
STANDARD
 70
0
 40
0
 41
1.0
 50
0.0
 71
0
 42
1
 3
ARIAL.TTF
 4

  0
ENDTAB
  0
TABLE
  2
VIEW
 70
0
  0
ENDTAB
  0
ENDSEC
  0
SECTION
  2
BLOCKS
  0
ENDSEC
  0
SECTION
  2
ENTITIES
  0
POLYLINE
  8
COURBE
 62
0
 70
1
 66
1
 10
0.0
 20
0.0
 30
0.0
  0
VERTEX
  8
COURBE
 10
297457.0
 20
2511524.0
  0
VERTEX
  8
COURBE
 10
297466.0
 20
2511516.0
  0
VERTEX
  8
COURBE
 10
297481.0
 20
2511509.0
  0
VERTEX
  8
COURBE
 10
297498.0
 20
2511503.0
  0
VERTEX
  8
COURBE
 10
297518.0
 20
2511504.0
  0
VERTEX
  8
COURBE
 10
297558.0
 20
2511513.0
  0
VERTEX
  8
COURBE
 10
297575.0
 20
2511521.0
  0
VERTEX
  8
COURBE
 10
297583.0
 20
2511531.0
  0
VERTEX
  8
COURBE
 10
297585.0
 20
2511544.0
  0
VERTEX
  8
COURBE
 10
297592.0
 20
2511551.0
  0
VERTEX
  8
COURBE
 10
297598.0
 20
2511559.0
  0
VERTEX
  8
COURBE
 10
297601.0
 20
2511569.0
  0
VERTEX
  8
COURBE
 10
297596.0
 20
2511578.0
  0
VERTEX
  8
COURBE
 10
297580.0
 20
2511581.0
  0
VERTEX
  8
COURBE
 10
297563.0
 20
2511581.0
  0
VERTEX
  8
COURBE
 10
297521.0
 20
2511586.0
  0
VERTEX
  8
COURBE
 10
297498.0
 20
2511587.0
  0
VERTEX
  8
COURBE
 10
297480.0
 20
2511585.0
  0
VERTEX
  8
COURBE
 10
297467.0
 20
2511579.0
  0
VERTEX
  8
COURBE
 10
297459.0
 20
2511571.0
  0
VERTEX
  8
COURBE
 10
297452.0
 20
2511545.0
  0
VERTEX
  8
COURBE
 10
297453.0
 20
2511533.0
  0
SEQEND
  8
COURBE
  0
POLYLINE
  8
COURBE
 62
0
 70
0
 66
1
 10
0.0
 20
0.0
 30
0.0
  0
VERTEX
  8
COURBE
 10
297611.0
 20
2512851.0
  0
VERTEX
  8
COURBE
 10
297579.0
 20
2512857.0
  0
VERTEX
  8
COURBE
 10
297561.0
 20
2512864.0
  0
VERTEX
  8
COURBE
 10
297544.0
 20
2512872.0
  0
VERTEX
  8
COURBE
 10
297509.0
 20
2512893.0
  0
VERTEX
  8
COURBE
 10
297490.0
 20
2512907.0
  0
VERTEX
  8
COURBE
 10
297424.0
 20
2512972.0
  0
VERTEX
  8
COURBE
 10
297394.0
 20
2512994.0
  0
VERTEX
  8
COURBE
 10
297381.0
 20
2512998.0
  0
VERTEX
  8
COURBE
 10
297373.0
 20
2512996.0
  0
VERTEX
  8
COURBE
 10
297367.0
 20
2512992.0
  0
VERTEX
  8
COURBE
 10
297343.0
 20
2512992.0
  0
VERTEX
  8
COURBE
 10
297347.0
 20
2512987.0
  0
VERTEX
  8
COURBE
 10
297346.0
 20
2512975.0
  0
VERTEX
  8
COURBE
 10
297342.0
 20
2512968.0
  0
VERTEX
  8
COURBE
 10
297338.0
 20
2512950.0
  0
VERTEX
  8
COURBE
 10
297329.0
 20
2512930.0
  0
VERTEX
  8
COURBE
 10
297332.0
 20
2512920.0
  0
VERTEX
  8
COURBE
 10
297348.0
 20
2512902.0
  0
VERTEX
  8
COURBE
 10
297354.0
 20
2512890.0
  0
VERTEX
  8
COURBE
 10
297356.0
 20
2512869.0
  0
VERTEX
  8
COURBE
 10
297355.0
 20
2512859.0
  0
VERTEX
  8
COURBE
 10
297350.0
 20
2512850.0
  0
VERTEX
  8
COURBE
 10
297341.0
 20
2512844.0
  0
VERTEX
  8
COURBE
 10
297337.0
 20
2512838.0
  0
VERTEX
  8
COURBE
 10
297347.0
 20
2512810.0
  0
VERTEX
  8
COURBE
 10
297358.0
 20
2512798.0
  0
VERTEX
  8
COURBE
 10
297379.0
 20
2512786.0
  0
VERTEX
  8
COURBE
 10
297402.0
 20
2512769.0
  0
VERTEX
  8
COURBE
 10
297429.0
 20
2512757.0
  0
VERTEX
  8
COURBE
 10
297442.0
 20
2512753.0
  0
VERTEX
  8
COURBE
 10
297460.0
 20
2512741.0
  0
VERTEX
  8
COURBE
 10
297469.0
 20
2512737.0
  0
VERTEX
  8
COURBE
 10
297484.0
 20
2512726.0
  0
VERTEX
  8
COURBE
 10
297507.0
 20
2512705.0
  0
VERTEX
  8
COURBE
 10
297517.0
 20
2512693.0
  0
VERTEX
  8
COURBE
 10
297529.0
 20
2512682.0
  0
VERTEX
  8
COURBE
 10
297540.0
 20
2512676.0
  0
VERTEX
  8
COURBE
 10
297552.0
 20
2512675.0
  0
VERTEX
  8
COURBE
 10
297563.0
 20
2512676.0
  0
VERTEX
  8
COURBE
 10
297576.0
 20
2512675.0
  0
VERTEX
  8
COURBE
 10
297593.0
 20
2512667.0
  0
VERTEX
  8
COURBE
 10
297615.0
 20
2512654.0
  0
VERTEX
  8
COURBE
 10
297623.0
 20
2512647.0
  0
VERTEX
  8
COURBE
 10
297630.0
 20
2512639.0
  0
VERTEX
  8
COURBE
 10
297633.0
 20
2512619.0
  0
VERTEX
  8
COURBE
 10
297649.0
 20
2512595.0
  0
VERTEX
  8
COURBE
 10
297661.0
 20
2512538.0
  0
VERTEX
  8
COURBE
 10
297656.0
 20
2512524.0
  0
VERTEX
  8
COURBE
 10
297648.0
 20
2512512.0
  0
VERTEX
  8
COURBE
 10
297624.0
 20
2512489.0
  0
VERTEX
  8
COURBE
 10
297607.0
 20
2512466.0
  0
VERTEX
  8
COURBE
 10
297597.0
 20
2512457.0
  0
VERTEX
  8
COURBE
 10
297553.0
 20
2512432.0
  0
VERTEX
  8
COURBE
 10
297547.0
 20
2512424.0
  0
VERTEX
  8
COURBE
 10
297545.0
 20
2512413.0
  0
VERTEX
  8
COURBE
 10
297546.0
 20
2512402.0
  0
VERTEX
  8
COURBE
 10
297554.0
 20
2512394.0
  0
VERTEX
  8
COURBE
 10
297579.0
 20
2512387.0
  0
VERTEX
  8
COURBE
 10
297589.0
 20
2512378.0
  0
VERTEX
  8
COURBE
 10
297602.0
 20
2512347.0
  0
VERTEX
  8
COURBE
 10
297602.0
 20
2512334.0
  0
VERTEX
  8
COURBE
 10
297589.0
 20
2512308.0
  0
VERTEX
  8
COURBE
 10
297582.0
 20
2512300.0
  0
VERTEX
  8
COURBE
 10
297571.0
 20
2512297.0
  0
VERTEX
  8
COURBE
 10
297559.0
 20
2512301.0
  0
VERTEX
  8
COURBE
 10
297512.0
 20
2512310.0
  0
VERTEX
  8
COURBE
 10
297507.0
 20
2512304.0
  0
VERTEX
  8
COURBE
 10
297495.0
 20
2512264.0
  0
VERTEX
  8
COURBE
 10
297488.0
 20
2512251.0
  0
VERTEX
  8
COURBE
 10
297476.0
 20
2512246.0
  0
VERTEX
  8
COURBE
 10
297462.0
 20
2512246.0
  0
VERTEX
  8
COURBE
 10
297448.0
 20
2512249.0
  0
VERTEX
  8
COURBE
 10
297398.0
 20
2512264.0
  0
VERTEX
  8
COURBE
 10
297391.0
 20
2512264.0
  0
VERTEX
  8
COURBE
 10
297381.0
 20
2512263.0
  0
VERTEX
  8
COURBE
 10
297373.0
 20
2512259.0
  0
VERTEX
  8
COURBE
 10
297370.0
 20
2512250.0
  0
VERTEX
  8
COURBE
 10
297369.0
 20
2512241.0
  0
VERTEX
  8
COURBE
 10
297369.0
 20
2512235.0
  0
VERTEX
  8
COURBE
 10
297361.0
 20
2512222.0
  0
VERTEX
  8
COURBE
 10
297353.0
 20
2512199.0
  0
VERTEX
  8
COURBE
 10
297353.0
 20
2512172.0
  0
VERTEX
  8
COURBE
 10
297350.0
 20
2512162.0
  0
VERTEX
  8
COURBE
 10
297338.0
 20
2512154.0
  0
VERTEX
  8
COURBE
 10
297324.0
 20
2512149.0
  0
VERTEX
  8
COURBE
 10
297317.0
 20
2512141.0
  0
VERTEX
  8
COURBE
 10
297316.0
 20
2512129.0
  0
VERTEX
  8
COURBE
 10
297310.0
 20
2512117.0
  0
VERTEX
  8
COURBE
 10
297299.0
 20
2512108.0
  0
VERTEX
  8
COURBE
 10
297287.0
 20
2512105.0
  0
VERTEX
  8
COURBE
 10
297262.0
 20
2512106.0
  0
VERTEX
  8
COURBE
 10
297262.0
 20
2512094.0
  0
VERTEX
  8
COURBE
 10
297259.0
 20
2512079.0
  0
VERTEX
  8
COURBE
 10
297239.0
 20
2512035.0
  0
VERTEX
  8
COURBE
 10
297214.0
 20
2511969.0
  0
VERTEX
  8
COURBE
 10
297204.0
 20
2511952.0
  0
VERTEX
  8
COURBE
 10
297177.0
 20
2511935.0
  0
VERTEX
  8
COURBE
 10
297166.0
 20
2511926.0
  0
VERTEX
  8
COURBE
 10
297160.0
 20
2511918.0
  0
VERTEX
  8
COURBE
 10
297153.0
 20
2511893.0
  0
VERTEX
  8
COURBE
 10
297154.0
 20
2511875.0
  0
VERTEX
  8
COURBE
 10
297156.0
 20
2511874.0
  0
VERTEX
  8
COURBE
 10
297174.0
 20
2511888.0
  0
VERTEX
  8
COURBE
 10
297216.0
 20
2511914.0
  0
VERTEX
  8
COURBE
 10
297228.0
 20
2511924.0
  0
VERTEX
  8
COURBE
 10
297268.0
 20
2511964.0
  0
VERTEX
  8
COURBE
 10
297289.0
 20
2511992.0
  0
VERTEX
  8
COURBE
 10
297315.0
 20
2512019.0
  0
VERTEX
  8
COURBE
 10
297351.0
 20
2512039.0
  0
VERTEX
  8
COURBE
 10
297369.0
 20
2512045.0
  0
VERTEX
  8
COURBE
 10
297443.0
 20
2512077.0
  0
VERTEX
  8
COURBE
 10
297462.0
 20
2512078.0
  0
VERTEX
  8
COURBE
 10
297481.0
 20
2512074.0
  0
VERTEX
  8
COURBE
 10
297520.0
 20
2512060.0
  0
VERTEX
  8
COURBE
 10
297552.0
 20
2512039.0
  0
VERTEX
  8
COURBE
 10
297565.0
 20
2512024.0
  0
VERTEX
  8
COURBE
 10
297577.0
 20
2512007.0
  0
VERTEX
  8
COURBE
 10
297583.0
 20
2511990.0
  0
VERTEX
  8
COURBE
 10
297583.0
 20
2511972.0
  0
VERTEX
  8
COURBE
 10
297568.0
 20
2511925.0
  0
VERTEX
  8
COURBE
 10
297560.0
 20
2511912.0
  0
VERTEX
  8
COURBE
 10
297543.0
 20
2511892.0
  0
VERTEX
  8
COURBE
 10
297539.0
 20
2511882.0
  0
VERTEX
  8
COURBE
 10
297543.0
 20
2511852.0
  0
VERTEX
  8
COURBE
 10
297545.0
 20
2511843.0
  0
VERTEX
  8
COURBE
 10
297554.0
 20
2511834.0
  0
VERTEX
  8
COURBE
 10
297608.0
 20
2511807.0
  0
VERTEX
  8
COURBE
 10
297617.0
 20
2511798.0
  0
VERTEX
  8
COURBE
 10
297620.0
 20
2511789.0
  0
VERTEX
  8
COURBE
 10
297627.0
 20
2511781.0
  0
VERTEX
  8
COURBE
 10
297627.0
 20
2511771.0
  0
VERTEX
  8
COURBE
 10
297630.0
 20
2511765.0
  0
VERTEX
  8
COURBE
 10
297636.0
 20
2511759.0
  0
VERTEX
  8
COURBE
 10
297642.0
 20
2511748.0
  0
VERTEX
  8
COURBE
 10
297653.0
 20
2511736.0
  0
VERTEX
  8
COURBE
 10
297664.0
 20
2511727.0
  0
VERTEX
  8
COURBE
 10
297670.0
 20
2511742.0
  0
VERTEX
  8
COURBE
 10
297670.0
 20
2511766.0
  0
VERTEX
  8
COURBE
 10
297675.0
 20
2511801.0
  0
VERTEX
  8
COURBE
 10
297671.0
 20
2511877.0
  0
VERTEX
  8
COURBE
 10
297672.0
 20
2511909.0
  0
VERTEX
  8
COURBE
 10
297675.0
 20
2511927.0
  0
VERTEX
  8
COURBE
 10
297681.0
 20
2511945.0
  0
VERTEX
  8
COURBE
 10
297694.0
 20
2511969.0
  0
VERTEX
  8
COURBE
 10
297702.0
 20
2511978.0
  0
VERTEX
  8
COURBE
 10
297715.0
 20
2511982.0
  0
VERTEX
  8
COURBE
 10
297727.0
 20
2511983.0
  0
VERTEX
  8
COURBE
 10
297752.0
 20
2511980.0
  0
VERTEX
  8
COURBE
 10
297763.0
 20
2511983.0
  0
VERTEX
  8
COURBE
 10
297773.0
 20
2511990.0
  0
VERTEX
  8
COURBE
 10
297784.0
 20
2512000.0
  0
VERTEX
  8
COURBE
 10
297794.0
 20
2512012.0
  0
VERTEX
  8
COURBE
 10
297808.0
 20
2512018.0
  0
VERTEX
  8
COURBE
 10
297824.0
 20
2512020.0
  0
VERTEX
  8
COURBE
 10
297859.0
 20
2512019.0
  0
VERTEX
  8
COURBE
 10
297871.0
 20
2512014.0
  0
VERTEX
  8
COURBE
 10
297879.0
 20
2512008.0
  0
VERTEX
  8
COURBE
 10
297894.0
 20
2512005.0
  0
VERTEX
  8
COURBE
 10
297901.0
 20
2512010.0
  0
VERTEX
  8
COURBE
 10
297908.0
 20
2512025.0
  0
VERTEX
  8
COURBE
 10
297913.0
 20
2512040.0
  0
VERTEX
  8
COURBE
 10
297919.0
 20
2512069.0
  0
VERTEX
  8
COURBE
 10
297929.0
 20
2512084.0
  0
VERTEX
  8
COURBE
 10
297944.0
 20
2512097.0
  0
VERTEX
  8
COURBE
 10
297959.0
 20
2512107.0
  0
VERTEX
  8
COURBE
 10
297976.0
 20
2512114.0
  0
VERTEX
  8
COURBE
 10
297992.0
 20
2512119.0
  0
VERTEX
  8
COURBE
 10
298027.0
 20
2512119.0
  0
VERTEX
  8
COURBE
 10
298033.0
 20
2512120.0
  0
VERTEX
  8
COURBE
 10
298032.0
 20
2512127.0
  0
VERTEX
  8
COURBE
 10
298022.0
 20
2512141.0
  0
VERTEX
  8
COURBE
 10
298003.0
 20
2512177.0
  0
VERTEX
  8
COURBE
 10
297989.0
 20
2512194.0
  0
VERTEX
  8
COURBE
 10
297944.0
 20
2512220.0
  0
VERTEX
  8
COURBE
 10
297927.0
 20
2512225.0
  0
VERTEX
  8
COURBE
 10
297886.0
 20
2512230.0
  0
VERTEX
  8
COURBE
 10
297873.0
 20
2512235.0
  0
VERTEX
  8
COURBE
 10
297852.0
 20
2512246.0
  0
VERTEX
  8
COURBE
 10
297841.0
 20
2512255.0
  0
VERTEX
  8
COURBE
 10
297831.0
 20
2512266.0
  0
VERTEX
  8
COURBE
 10
297823.0
 20
2512278.0
  0
VERTEX
  8
COURBE
 10
297819.0
 20
2512290.0
  0
VERTEX
  8
COURBE
 10
297820.0
 20
2512304.0
  0
VERTEX
  8
COURBE
 10
297823.0
 20
2512314.0
  0
VERTEX
  8
COURBE
 10
297839.0
 20
2512341.0
  0
VERTEX
  8
COURBE
 10
297864.0
 20
2512362.0
  0
VERTEX
  8
COURBE
 10
297888.0
 20
2512389.0
  0
VERTEX
  8
COURBE
 10
297893.0
 20
2512401.0
  0
VERTEX
  8
COURBE
 10
297895.0
 20
2512417.0
  0
SEQEND
  8
COURBE
  0
POLYLINE
  8
COURBE
 62
0
 70
0
 66
1
 10
0.0
 20
0.0
 30
0.0
  0
VERTEX
  8
COURBE
 10
297563.0
 20
2513360.0
  0
VERTEX
  8
COURBE
 10
297618.0
 20
2513329.0
  0
VERTEX
  8
COURBE
 10
297651.0
 20
2513307.0
  0
VERTEX
  8
COURBE
 10
297688.0
 20
2513290.0
  0
VERTEX
  8
COURBE
 10
297706.0
 20
2513280.0
  0
VERTEX
  8
COURBE
 10
297727.0
 20
2513275.0
  0
VERTEX
  8
COURBE
 10
297765.0
 20
2513272.0
  0
VERTEX
  8
COURBE
 10
297821.0
 20
2513278.0
  0
VERTEX
  8
COURBE
 10
297839.0
 20
2513275.0
  0
VERTEX
  8
COURBE
 10
297869.0
 20
2513261.0
  0
VERTEX
  8
COURBE
 10
297901.0
 20
2513238.0
  0
VERTEX
  8
COURBE
 10
297926.0
 20
2513225.0
  0
VERTEX
  8
COURBE
 10
297931.0
 20
2513221.0
  0
VERTEX
  8
COURBE
 10
297944.0
 20
2513205.0
  0
VERTEX
  8
COURBE
 10
297945.0
 20
2513197.0
  0
VERTEX
  8
COURBE
 10
298006.0
 20
2513147.0
  0
VERTEX
  8
COURBE
 10
298015.0
 20
2513133.0
  0
VERTEX
  8
COURBE
 10
298061.0
 20
2513089.0
  0
VERTEX
  8
COURBE
 10
298094.0
 20
2513064.0
  0
VERTEX
  8
COURBE
 10
298109.0
 20
2513056.0
  0
VERTEX
  8
COURBE
 10
298124.0
 20
2513055.0
  0
VERTEX
  8
COURBE
 10
298137.0
 20
2513058.0
  0
VERTEX
  8
COURBE
 10
298145.0
 20
2513053.0
  0
VERTEX
  8
COURBE
 10
298151.0
 20
2513045.0
  0
VERTEX
  8
COURBE
 10
298147.0
 20
2513022.0
  0
VERTEX
  8
COURBE
 10
298146.0
 20
2513006.0
  0
VERTEX
  8
COURBE
 10
298156.0
 20
2512990.0
  0
VERTEX
  8
COURBE
 10
298172.0
 20
2512976.0
  0
VERTEX
  8
COURBE
 10
298188.0
 20
2512965.0
  0
VERTEX
  8
COURBE
 10
298223.0
 20
2512934.0
  0
VERTEX
  8
COURBE
 10
298241.0
 20
2512922.0
  0
VERTEX
  8
COURBE
 10
298279.0
 20
2512907.0
  0
VERTEX
  8
COURBE
 10
298291.0
 20
2512899.0
  0
VERTEX
  8
COURBE
 10
298301.0
 20
2512890.0
  0
VERTEX
  8
COURBE
 10
298333.0
 20
2512872.0
  0
VERTEX
  8
COURBE
 10
298402.0
 20
2512842.0
  0
VERTEX
  8
COURBE
 10
298420.0
 20
2512827.0
  0
VERTEX
  8
COURBE
 10
298426.0
 20
2512827.0
  0
VERTEX
  8
COURBE
 10
298437.0
 20
2512809.0
  0
VERTEX
  8
COURBE
 10
298444.0
 20
2512784.0
  0
VERTEX
  8
COURBE
 10
298453.0
 20
2512774.0
  0
VERTEX
  8
COURBE
 10
298465.0
 20
2512751.0
  0
VERTEX
  8
COURBE
 10
298465.0
 20
2512741.0
  0
VERTEX
  8
COURBE
 10
298459.0
 20
2512721.0
  0
VERTEX
  8
COURBE
 10
298456.0
 20
2512719.0
  0
VERTEX
  8
COURBE
 10
298448.0
 20
2512721.0
  0
VERTEX
  8
COURBE
 10
298436.0
 20
2512719.0
  0
VERTEX
  8
COURBE
 10
298424.0
 20
2512713.0
  0
VERTEX
  8
COURBE
 10
298411.0
 20
2512703.0
  0
VERTEX
  8
COURBE
 10
298392.0
 20
2512681.0
  0
VERTEX
  8
COURBE
 10
298380.0
 20
2512675.0
  0
VERTEX
  8
COURBE
 10
298366.0
 20
2512675.0
  0
VERTEX
  8
COURBE
 10
298337.0
 20
2512680.0
  0
VERTEX
  8
COURBE
 10
298312.0
 20
2512682.0
  0
VERTEX
  8
COURBE
 10
298298.0
 20
2512691.0
  0
VERTEX
  8
COURBE
 10
298287.0
 20
2512702.0
  0
VERTEX
  8
COURBE
 10
298269.0
 20
2512733.0
  0
VERTEX
  8
COURBE
 10
298260.0
 20
2512746.0
  0
VERTEX
  8
COURBE
 10
298249.0
 20
2512753.0
  0
VERTEX
  8
COURBE
 10
298242.0
 20
2512765.0
  0
VERTEX
  8
COURBE
 10
298238.0
 20
2512781.0
  0
VERTEX
  8
COURBE
 10
298228.0
 20
2512797.0
  0
VERTEX
  8
COURBE
 10
298218.0
 20
2512809.0
  0
VERTEX
  8
COURBE
 10
298203.0
 20
2512815.0
  0
VERTEX
  8
COURBE
 10
298186.0
 20
2512815.0
  0
VERTEX
  8
COURBE
 10
298149.0
 20
2512809.0
  0
VERTEX
  8
COURBE
 10
298128.0
 20
2512803.0
  0
VERTEX
  8
COURBE
 10
298107.0
 20
2512794.0
  0
VERTEX
  8
COURBE
 10
298088.0
 20
2512789.0
  0
VERTEX
  8
COURBE
 10
298034.0
 20
2512759.0
  0
VERTEX
  8
COURBE
 10
298019.0
 20
2512747.0
  0
VERTEX
  8
COURBE
 10
297997.0
 20
2512720.0
  0
VERTEX
  8
COURBE
 10
297983.0
 20
2512708.0
  0
VERTEX
  8
COURBE
 10
297948.0
 20
2512698.0
  0
VERTEX
  8
COURBE
 10
297932.0
 20
2512696.0
  0
VERTEX
  8
COURBE
 10
297920.0
 20
2512692.0
  0
VERTEX
  8
COURBE
 10
297906.0
 20
2512691.0
  0
VERTEX
  8
COURBE
 10
297894.0
 20
2512692.0
  0
VERTEX
  8
COURBE
 10
297862.0
 20
2512724.0
  0
VERTEX
  8
COURBE
 10
297849.0
 20
2512744.0
  0
VERTEX
  8
COURBE
 10
297843.0
 20
2512758.0
  0
VERTEX
  8
COURBE
 10
297845.0
 20
2512765.0
  0
VERTEX
  8
COURBE
 10
297854.0
 20
2512775.0
  0
VERTEX
  8
COURBE
 10
297881.0
 20
2512799.0
  0
VERTEX
  8
COURBE
 10
297901.0
 20
2512831.0
  0
VERTEX
  8
COURBE
 10
297908.0
 20
2512848.0
  0
VERTEX
  8
COURBE
 10
297912.0
 20
2512880.0
  0
VERTEX
  8
COURBE
 10
297905.0
 20
2512894.0
  0
VERTEX
  8
COURBE
 10
297883.0
 20
2512917.0
  0
VERTEX
  8
COURBE
 10
297873.0
 20
2512933.0
  0
VERTEX
  8
COURBE
 10
297860.0
 20
2512947.0
  0
VERTEX
  8
COURBE
 10
297846.0
 20
2512956.0
  0
VERTEX
  8
COURBE
 10
297822.0
 20
2512978.0
  0
VERTEX
  8
COURBE
 10
297812.0
 20
2512984.0
  0
VERTEX
  8
COURBE
 10
297808.0
 20
2512983.0
  0
VERTEX
  8
COURBE
 10
297803.0
 20
2512987.0
  0
VERTEX
  8
COURBE
 10
297799.0
 20
2513015.0
  0
VERTEX
  8
COURBE
 10
297793.0
 20
2513034.0
  0
VERTEX
  8
COURBE
 10
297796.0
 20
2513043.0
  0
VERTEX
  8
COURBE
 10
297796.0
 20
2513050.0
  0
VERTEX
  8
COURBE
 10
297791.0
 20
2513057.0
  0
VERTEX
  8
COURBE
 10
297769.0
 20
2513076.0
  0
VERTEX
  8
COURBE
 10
297756.0
 20
2513080.0
  0
VERTEX
  8
COURBE
 10
297728.0
 20
2513080.0
  0
VERTEX
  8
COURBE
 10
297714.0
 20
2513085.0
  0
VERTEX
  8
COURBE
 10
297699.0
 20
2513086.0
  0
VERTEX
  8
COURBE
 10
297659.0
 20
2513080.0
  0
VERTEX
  8
COURBE
 10
297611.0
 20
2513093.0
  0
VERTEX
  8
COURBE
 10
297585.0
 20
2513109.0
  0
VERTEX
  8
COURBE
 10
297566.0
 20
2513136.0
  0
VERTEX
  8
COURBE
 10
297559.0
 20
2513151.0
  0
SEQEND
  8
COURBE
  0
POLYLINE
  8
CUVETTE
 62
0
 70
1
 66
1
 10
0.0
 20
0.0
 30
0.0
  0
VERTEX
  8
CUVETTE
 10
297547.0
 20
2512853.0
  0
VERTEX
  8
CUVETTE
 10
297537.0
 20
2512858.0
  0
VERTEX
  8
CUVETTE
 10
297526.0
 20
2512867.0
  0
VERTEX
  8
CUVETTE
 10
297517.0
 20
2512873.0
  0
VERTEX
  8
CUVETTE
 10
297509.0
 20
2512871.0
  0
VERTEX
  8
CUVETTE
 10
297503.0
 20
2512865.0
  0
VERTEX
  8
CUVETTE
 10
297494.0
 20
2512860.0
  0
VERTEX
  8
CUVETTE
 10
297458.0
 20
2512862.0
  0
VERTEX
  8
CUVETTE
 10
297442.0
 20
2512856.0
  0
VERTEX
  8
CUVETTE
 10
297438.0
 20
2512828.0
  0
VERTEX
  8
CUVETTE
 10
297433.0
 20
2512824.0
  0
VERTEX
  8
CUVETTE
 10
297423.0
 20
2512818.0
  0
VERTEX
  8
CUVETTE
 10
297422.0
 20
2512811.0
  0
VERTEX
  8
CUVETTE
 10
297425.0
 20
2512803.0
  0
VERTEX
  8
CUVETTE
 10
297431.0
 20
2512796.0
  0
VERTEX
  8
CUVETTE
 10
297439.0
 20
2512790.0
  0
VERTEX
  8
CUVETTE
 10
297465.0
 20
2512784.0
  0
VERTEX
  8
CUVETTE
 10
297521.0
 20
2512778.0
  0
VERTEX
  8
CUVETTE
 10
297572.0
 20
2512769.0
  0
VERTEX
  8
CUVETTE
 10
297586.0
 20
2512769.0
  0
VERTEX
  8
CUVETTE
 10
297600.0
 20
2512774.0
  0
VERTEX
  8
CUVETTE
 10
297611.0
 20
2512774.0
  0
VERTEX
  8
CUVETTE
 10
297661.0
 20
2512766.0
  0
VERTEX
  8
CUVETTE
 10
297672.0
 20
2512758.0
  0
VERTEX
  8
CUVETTE
 10
297695.0
 20
2512748.0
  0
VERTEX
  8
CUVETTE
 10
297705.0
 20
2512741.0
  0
VERTEX
  8
CUVETTE
 10
297713.0
 20
2512734.0
  0
VERTEX
  8
CUVETTE
 10
297718.0
 20
2512723.0
  0
VERTEX
  8
CUVETTE
 10
297716.0
 20
2512684.0
  0
VERTEX
  8
CUVETTE
 10
297707.0
 20
2512655.0
  0
VERTEX
  8
CUVETTE
 10
297691.0
 20
2512628.0
  0
VERTEX
  8
CUVETTE
 10
297696.0
 20
2512616.0
  0
VERTEX
  8
CUVETTE
 10
297706.0
 20
2512610.0
  0
VERTEX
  8
CUVETTE
 10
297717.0
 20
2512590.0
  0
VERTEX
  8
CUVETTE
 10
297709.0
 20
2512522.0
  0
VERTEX
  8
CUVETTE
 10
297710.0
 20
2512508.0
  0
VERTEX
  8
CUVETTE
 10
297716.0
 20
2512498.0
  0
VERTEX
  8
CUVETTE
 10
297719.0
 20
2512485.0
  0
VERTEX
  8
CUVETTE
 10
297715.0
 20
2512473.0
  0
VERTEX
  8
CUVETTE
 10
297708.0
 20
2512461.0
  0
VERTEX
  8
CUVETTE
 10
297697.0
 20
2512448.0
  0
VERTEX
  8
CUVETTE
 10
297672.0
 20
2512429.0
  0
VERTEX
  8
CUVETTE
 10
297617.0
 20
2512407.0
  0
VERTEX
  8
CUVETTE
 10
297608.0
 20
2512397.0
  0
VERTEX
  8
CUVETTE
 10
297608.0
 20
2512388.0
  0
VERTEX
  8
CUVETTE
 10
297642.0
 20
2512356.0
  0
VERTEX
  8
CUVETTE
 10
297648.0
 20
2512344.0
  0
VERTEX
  8
CUVETTE
 10
297651.0
 20
2512331.0
  0
VERTEX
  8
CUVETTE
 10
297652.0
 20
2512318.0
  0
VERTEX
  8
CUVETTE
 10
297649.0
 20
2512305.0
  0
VERTEX
  8
CUVETTE
 10
297632.0
 20
2512285.0
  0
VERTEX
  8
CUVETTE
 10
297619.0
 20
2512280.0
  0
VERTEX
  8
CUVETTE
 10
297608.0
 20
2512278.0
  0
VERTEX
  8
CUVETTE
 10
297598.0
 20
2512272.0
  0
VERTEX
  8
CUVETTE
 10
297589.0
 20
2512260.0
  0
VERTEX
  8
CUVETTE
 10
297579.0
 20
2512234.0
  0
VERTEX
  8
CUVETTE
 10
297565.0
 20
2512213.0
  0
VERTEX
  8
CUVETTE
 10
297563.0
 20
2512200.0
  0
VERTEX
  8
CUVETTE
 10
297551.0
 20
2512190.0
  0
VERTEX
  8
CUVETTE
 10
297519.0
 20
2512182.0
  0
VERTEX
  8
CUVETTE
 10
297485.0
 20
2512171.0
  0
VERTEX
  8
CUVETTE
 10
297483.0
 20
2512168.0
  0
VERTEX
  8
CUVETTE
 10
297470.0
 20
2512154.0
  0
VERTEX
  8
CUVETTE
 10
297468.0
 20
2512143.0
  0
VERTEX
  8
CUVETTE
 10
297470.0
 20
2512132.0
  0
VERTEX
  8
CUVETTE
 10
297473.0
 20
2512122.0
  0
VERTEX
  8
CUVETTE
 10
297461.0
 20
2512104.0
  0
VERTEX
  8
CUVETTE
 10
297497.0
 20
2512100.0
  0
VERTEX
  8
CUVETTE
 10
297541.0
 20
2512099.0
  0
VERTEX
  8
CUVETTE
 10
297558.0
 20
2512097.0
  0
VERTEX
  8
CUVETTE
 10
297570.0
 20
2512093.0
  0
VERTEX
  8
CUVETTE
 10
297579.0
 20
2512085.0
  0
VERTEX
  8
CUVETTE
 10
297588.0
 20
2512072.0
  0
VERTEX
  8
CUVETTE
 10
297607.0
 20
2512047.0
  0
VERTEX
  8
CUVETTE
 10
297611.0
 20
2512032.0
  0
VERTEX
  8
CUVETTE
 10
297614.0
 20
2512015.0
  0
VERTEX
  8
CUVETTE
 10
297623.0
 20
2512000.0
  0
VERTEX
  8
CUVETTE
 10
297642.0
 20
2511987.0
  0
VERTEX
  8
CUVETTE
 10
297651.0
 20
2511972.0
  0
VERTEX
  8
CUVETTE
 10
297663.0
 20
2511973.0
  0
VERTEX
  8
CUVETTE
 10
297673.0
 20
2511987.0
  0
VERTEX
  8
CUVETTE
 10
297688.0
 20
2512016.0
  0
VERTEX
  8
CUVETTE
 10
297708.0
 20
2512047.0
  0
VERTEX
  8
CUVETTE
 10
297719.0
 20
2512063.0
  0
VERTEX
  8
CUVETTE
 10
297733.0
 20
2512074.0
  0
VERTEX
  8
CUVETTE
 10
297749.0
 20
2512083.0
  0
VERTEX
  8
CUVETTE
 10
297778.0
 20
2512106.0
  0
VERTEX
  8
CUVETTE
 10
297794.0
 20
2512116.0
  0
VERTEX
  8
CUVETTE
 10
297811.0
 20
2512125.0
  0
VERTEX
  8
CUVETTE
 10
297827.0
 20
2512125.0
  0
VERTEX
  8
CUVETTE
 10
297860.0
 20
2512121.0
  0
VERTEX
  8
CUVETTE
 10
297874.0
 20
2512122.0
  0
VERTEX
  8
CUVETTE
 10
297901.0
 20
2512156.0
  0
VERTEX
  8
CUVETTE
 10
297893.0
 20
2512167.0
  0
VERTEX
  8
CUVETTE
 10
297879.0
 20
2512171.0
  0
VERTEX
  8
CUVETTE
 10
297851.0
 20
2512169.0
  0
VERTEX
  8
CUVETTE
 10
297839.0
 20
2512176.0
  0
VERTEX
  8
CUVETTE
 10
297831.0
 20
2512186.0
  0
VERTEX
  8
CUVETTE
 10
297831.0
 20
2512198.0
  0
VERTEX
  8
CUVETTE
 10
297838.0
 20
2512207.0
  0
VERTEX
  8
CUVETTE
 10
297850.0
 20
2512213.0
  0
VERTEX
  8
CUVETTE
 10
297851.0
 20
2512217.0
  0
VERTEX
  8
CUVETTE
 10
297860.0
 20
2512223.0
  0
VERTEX
  8
CUVETTE
 10
297859.0
 20
2512229.0
  0
VERTEX
  8
CUVETTE
 10
297819.0
 20
2512263.0
  0
VERTEX
  8
CUVETTE
 10
297814.0
 20
2512275.0
  0
VERTEX
  8
CUVETTE
 10
297810.0
 20
2512291.0
  0
VERTEX
  8
CUVETTE
 10
297808.0
 20
2512308.0
  0
VERTEX
  8
CUVETTE
 10
297808.0
 20
2512325.0
  0
VERTEX
  8
CUVETTE
 10
297815.0
 20
2512355.0
  0
VERTEX
  8
CUVETTE
 10
297821.0
 20
2512369.0
  0
VERTEX
  8
CUVETTE
 10
297830.0
 20
2512382.0
  0
VERTEX
  8
CUVETTE
 10
297843.0
 20
2512391.0
  0
VERTEX
  8
CUVETTE
 10
297857.0
 20
2512397.0
  0
VERTEX
  8
CUVETTE
 10
297866.0
 20
2512409.0
  0
VERTEX
  8
CUVETTE
 10
297865.0
 20
2512422.0
  0
VERTEX
  8
CUVETTE
 10
297852.0
 20
2512445.0
  0
VERTEX
  8
CUVETTE
 10
297845.0
 20
2512468.0
  0
VERTEX
  8
CUVETTE
 10
297845.0
 20
2512492.0
  0
VERTEX
  8
CUVETTE
 10
297851.0
 20
2512544.0
  0
VERTEX
  8
CUVETTE
 10
297850.0
 20
2512552.0
  0
VERTEX
  8
CUVETTE
 10
297843.0
 20
2512575.0
  0
VERTEX
  8
CUVETTE
 10
297842.0
 20
2512582.0
  0
VERTEX
  8
CUVETTE
 10
297849.0
 20
2512603.0
  0
VERTEX
  8
CUVETTE
 10
297853.0
 20
2512607.0
  0
VERTEX
  8
CUVETTE
 10
297859.0
 20
2512616.0
  0
VERTEX
  8
CUVETTE
 10
297862.0
 20
2512632.0
  0
VERTEX
  8
CUVETTE
 10
297864.0
 20
2512646.0
  0
VERTEX
  8
CUVETTE
 10
297860.0
 20
2512658.0
  0
VERTEX
  8
CUVETTE
 10
297849.0
 20
2512661.0
  0
VERTEX
  8
CUVETTE
 10
297824.0
 20
2512650.0
  0
VERTEX
  8
CUVETTE
 10
297814.0
 20
2512654.0
  0
VERTEX
  8
CUVETTE
 10
297807.0
 20
2512665.0
  0
VERTEX
  8
CUVETTE
 10
297804.0
 20
2512677.0
  0
VERTEX
  8
CUVETTE
 10
297806.0
 20
2512700.0
  0
VERTEX
  8
CUVETTE
 10
297821.0
 20
2512718.0
  0
VERTEX
  8
CUVETTE
 10
297826.0
 20
2512727.0
  0
VERTEX
  8
CUVETTE
 10
297826.0
 20
2512735.0
  0
VERTEX
  8
CUVETTE
 10
297825.0
 20
2512740.0
  0
VERTEX
  8
CUVETTE
 10
297820.0
 20
2512744.0
  0
VERTEX
  8
CUVETTE
 10
297815.0
 20
2512754.0
  0
VERTEX
  8
CUVETTE
 10
297803.0
 20
2512768.0
  0
VERTEX
  8
CUVETTE
 10
297777.0
 20
2512781.0
  0
VERTEX
  8
CUVETTE
 10
297701.0
 20
2512809.0
  0
VERTEX
  8
CUVETTE
 10
297670.0
 20
2512815.0
  0
VERTEX
  8
CUVETTE
 10
297617.0
 20
2512831.0
  0
VERTEX
  8
CUVETTE
 10
297567.0
 20
2512844.0
  0
SEQEND
  8
CUVETTE
  0
ENDSEC
  0
EOF
