  0
SECTION
  2
HEADER
  9
$ACADVER
  1
AC1009
  9
$INSBASE
 10
0.0
 20
0.0
 30
0.0
  9
$EXTMIN
 10
0.0
 20
0.0
 30
0.0
  9
$EXTMAX
 10
0.0
 20
0.0
 30
0.0
  0
ENDSEC
  0
SECTION
  2
TABLES
  0
TABLE
  2
VPORT
 70
0
  0
ENDTAB
  0
TABLE
  2
LTYPE
 70
1
  0
LTYPE
  2
CONTINUOUS
 70
0
  3
Solid line
 72
65
 73
0
 40
0.0
  0
ENDTAB
  0
TABLE
  2
LAYER
 70
1
  0
LAYER
  2
PYDXF
 70
64
 62
7
  6
continuous
  0
ENDTAB
  0
TABLE
  2
STYLE
 70
1
  0
STYLE
  2
STANDARD
 70
0
 40
0
 41
1.0
 50
0.0
 71
0
 42
1
 3
ARIAL.TTF
 4

  0
ENDTAB
  0
TABLE
  2
VIEW
 70
0
  0
ENDTAB
  0
ENDSEC
  0
SECTION
  2
BLOCKS
  0
ENDSEC
  0
SECTION
  2
ENTITIES
  0
POLYLINE
  8
LIG_DES
 62
0
 70
0
 66
1
 10
0.0
 20
0.0
 30
0.0
  0
VERTEX
  8
LIG_DES
 10
295487.0
 20
2513718.0
  0
VERTEX
  8
LIG_DES
 10
295468.0
 20
2513694.0
  0
VERTEX
  8
LIG_DES
 10
295455.0
 20
2513684.0
  0
VERTEX
  8
LIG_DES
 10
295446.0
 20
2513683.0
  0
VERTEX
  8
LIG_DES
 10
295412.0
 20
2513662.0
  0
VERTEX
  8
LIG_DES
 10
295391.0
 20
2513653.0
  0
VERTEX
  8
LIG_DES
 10
295347.0
 20
2513620.0
  0
VERTEX
  8
LIG_DES
 10
295336.0
 20
2513604.0
  0
VERTEX
  8
LIG_DES
 10
295328.0
 20
2513590.0
  0
VERTEX
  8
LIG_DES
 10
295316.0
 20
2513579.0
  0
VERTEX
  8
LIG_DES
 10
295301.0
 20
2513569.0
  0
VERTEX
  8
LIG_DES
 10
295281.0
 20
2513541.0
  0
VERTEX
  8
LIG_DES
 10
295272.0
 20
2513535.0
  0
VERTEX
  8
LIG_DES
 10
295257.0
 20
2513523.0
  0
VERTEX
  8
LIG_DES
 10
295236.0
 20
2513511.0
  0
VERTEX
  8
LIG_DES
 10
295226.0
 20
2513501.0
  0
SEQEND
  8
LIG_DES
  0
POLYLINE
  8
LIG_DES
 62
0
 70
0
 66
1
 10
0.0
 20
0.0
 30
0.0
  0
VERTEX
  8
LIG_DES
 10
295521.0
 20
2513727.0
  0
VERTEX
  8
LIG_DES
 10
295528.0
 20
2513732.0
  0
VERTEX
  8
LIG_DES
 10
295536.0
 20
2513740.0
  0
VERTEX
  8
LIG_DES
 10
295536.0
 20
2513751.0
  0
VERTEX
  8
LIG_DES
 10
295529.0
 20
2513760.0
  0
VERTEX
  8
LIG_DES
 10
295527.0
 20
2513764.0
  0
SEQEND
  8
LIG_DES
  0
POLYLINE
  8
LIG_DES
 62
0
 70
0
 66
1
 10
0.0
 20
0.0
 30
0.0
  0
VERTEX
  8
LIG_DES
 10
295549.0
 20
2513754.0
  0
VERTEX
  8
LIG_DES
 10
295548.0
 20
2513762.0
  0
VERTEX
  8
LIG_DES
 10
295547.0
 20
2513769.0
  0
VERTEX
  8
LIG_DES
 10
295547.0
 20
2513774.0
  0
VERTEX
  8
LIG_DES
 10
295545.0
 20
2513777.0
  0
VERTEX
  8
LIG_DES
 10
295544.0
 20
2513783.0
  0
VERTEX
  8
LIG_DES
 10
295546.0
 20
2513786.0
  0
VERTEX
  8
LIG_DES
 10
295549.0
 20
2513791.0
  0
SEQEND
  8
LIG_DES
  0
ENDSEC
  0
EOF
